# xmcd
#
# Track frame offsets: 
#        150
#        16065
#        28598
#        39902
#        52665
#        65790
#        75163
#        86793
#        101776
#        112976
#        127282
#        138081
#        149710
#        161499
#        173250
#        182711
#        206121
#
# Disc length: 4440 seconds
#
# Revision: 0
# Processed by: cddbd v1.5.2PL0 Copyright (c) Steve Scherf et al.
# Submitted via: ExactAudioCopy v0.99pb4
#
DISCID=de115611
DTITLE=The Cats - Cats as cats can
DYEAR=1967
DGENRE=country
TTITLE0=What is the world coming to
TTITLE1=Night time
TTITLE2=Little miss Mary
TTITLE3=Without your love
TTITLE4=No you can't love them all
TTITLE5=Far beyond the call of duty
TTITLE6=Sure he's a cat
TTITLE7=Goodbye baby, baby goodbye
TTITLE8=I'm going out (The same way I came in)
TTITLE9=Love of the common people
TTITLE10=But tomorrow
TTITLE11=Full stop
TTITLE12=What a crazy life
TTITLE13=Hopeless try
TTITLE14=Vive l'amour
TTITLE15=How could I be so blind
TTITLE16=Datatrack
EXTD=
EXTT0=
EXTT1=
EXTT2=
EXTT3=
EXTT4=
EXTT5=
EXTT6=
EXTT7=
EXTT8=
EXTT9=
EXTT10=
EXTT11=
EXTT12=
EXTT13=
EXTT14=
EXTT15=
EXTT16=
PLAYORDER=
